<svg width="26" height="26" viewBox="0 0 26 26" fill="none" xmlns="http://www.w3.org/2000/svg">
<g clip-path="url(#clip0_0:90)">
<path d="M23.6415 9.75H21.2722V12.1084H18.9138V14.4777H21.2722V16.8361H23.6415V14.4777H25.9999V12.1084H23.6415V9.75Z" fill="white"/>
<path d="M8.125 21.125C12.8137 21.125 15.9283 17.8338 15.9283 13.1885C15.9283 12.6566 15.873 12.246 15.7961 11.8365H8.12608V14.6293H12.7378C12.5493 15.8156 11.3414 18.1318 8.12608 18.1318C5.356 18.1318 3.094 15.8373 3.094 13C3.094 10.1628 5.35492 7.86717 8.12608 7.86717C9.711 7.86717 10.764 8.54317 11.3631 9.1195L13.5688 7.00267C12.1485 5.67342 10.3198 4.875 8.125 4.875C3.63567 4.875 0 8.51067 0 13C0 17.4893 3.63567 21.125 8.125 21.125Z" fill="white"/>
</g>
<defs>
<clipPath id="clip0_0:90">
<rect width="26" height="26" fill="white"/>
</clipPath>
</defs>
</svg>
