<svg width="43" height="42" viewBox="0 0 43 42" fill="none" xmlns="http://www.w3.org/2000/svg">
<g clip-path="url(#clip0_0:1064)">
<path d="M21.8291 11.5609C23.4174 11.5609 24.7925 10.9913 25.9164 9.86735C27.0399 8.74364 27.6097 7.3687 27.6097 5.78026C27.6097 4.19238 27.0401 2.81726 25.9162 1.69317C24.7923 0.56964 23.4172 0 21.8291 0C20.2407 0 18.8657 0.56964 17.742 1.69336C16.6183 2.81707 16.0485 4.19219 16.0485 5.78026C16.0485 7.3687 16.6183 8.74382 17.742 9.86754C18.8661 10.9911 20.2412 11.5609 21.8291 11.5609V11.5609ZM18.7366 2.6878C19.5989 1.82556 20.6104 1.40643 21.8291 1.40643C23.0477 1.40643 24.0593 1.82556 24.9218 2.6878C25.784 3.55023 26.2033 4.56188 26.2033 5.78026C26.2033 6.99901 25.784 8.01048 24.9218 8.87291C24.0593 9.73533 23.0477 10.1545 21.8291 10.1545C20.6107 10.1545 19.5992 9.73515 18.7366 8.87291C17.8742 8.01067 17.4549 6.99901 17.4549 5.78026C17.4549 4.56188 17.8742 3.55023 18.7366 2.6878Z" fill="#0F2438"/>
<path d="M31.9435 18.4549C31.9111 17.9872 31.8456 17.4771 31.7491 16.9384C31.6517 16.3957 31.5262 15.8826 31.3761 15.4137C31.2208 14.929 31.0101 14.4504 30.7491 13.9917C30.4787 13.5156 30.1608 13.1011 29.8041 12.7599C29.4312 12.4031 28.9745 12.1161 28.4464 11.9069C27.9202 11.6987 27.337 11.5932 26.7131 11.5932C26.4681 11.5932 26.2312 11.6937 25.7736 11.9916C25.492 12.1753 25.1626 12.3877 24.7949 12.6226C24.4805 12.8229 24.0546 13.0106 23.5286 13.1805C23.0153 13.3466 22.4942 13.4308 21.9797 13.4308C21.4655 13.4308 20.9444 13.3466 20.4308 13.1805C19.9053 13.0108 19.4792 12.8231 19.1653 12.6228C18.8011 12.3901 18.4716 12.1777 18.1857 11.9915C17.7285 11.6935 17.4916 11.593 17.2466 11.593C16.6226 11.593 16.0396 11.6987 15.5135 11.907C14.9858 12.116 14.5289 12.4029 14.1556 12.7601C13.7989 13.1014 13.481 13.5158 13.2108 13.9917C12.9502 14.4504 12.7393 14.9288 12.584 15.4139C12.434 15.8828 12.3086 16.3957 12.2112 16.9384C12.1145 17.4764 12.0491 17.9867 12.0167 18.4554C11.9849 18.9137 11.9688 19.3907 11.9688 19.8727C11.9688 21.1255 12.367 22.1397 13.1523 22.8877C13.928 23.6258 14.9541 24 16.2023 24H27.7585C29.0063 24 30.0325 23.6258 30.8083 22.8877C31.5938 22.1402 31.9921 21.1257 31.9921 19.8725C31.9919 19.3889 31.9756 18.9119 31.9435 18.4549V18.4549ZM29.8386 21.8687C29.326 22.3565 28.6456 22.5936 27.7583 22.5936H16.2023C15.3148 22.5936 14.6344 22.3565 14.1221 21.8689C13.6194 21.3904 13.3752 20.7373 13.3752 19.8727C13.3752 19.423 13.39 18.9789 13.4197 18.5527C13.4486 18.1344 13.5078 17.675 13.5955 17.1869C13.6821 16.7048 13.7923 16.2523 13.9234 15.8427C14.0492 15.4499 14.2208 15.061 14.4335 14.6864C14.6366 14.3293 14.8702 14.023 15.1281 13.7762C15.3692 13.5453 15.6732 13.3563 16.0313 13.2146C16.3625 13.0835 16.7348 13.0117 17.1389 13.0009C17.1882 13.0271 17.2759 13.0771 17.418 13.1697C17.7071 13.3582 18.0403 13.5731 18.4088 13.8084C18.824 14.0732 19.3591 14.3123 19.9983 14.5187C20.6518 14.73 21.3183 14.8373 21.9799 14.8373C22.6414 14.8373 23.3081 14.73 23.9612 14.5189C24.601 14.3121 25.1359 14.0732 25.5517 13.808C25.9287 13.5671 26.2526 13.3583 26.5417 13.1697C26.6838 13.0773 26.7715 13.0271 26.8208 13.0009C27.2251 13.0117 27.5974 13.0835 27.9288 13.2146C28.2867 13.3563 28.5907 13.5455 28.8318 13.7762C29.0897 14.0228 29.3233 14.3292 29.5264 14.6866C29.7393 15.061 29.9111 15.4501 30.0367 15.8425C30.168 16.2527 30.2784 16.7049 30.3648 17.1867C30.4523 17.6758 30.5117 18.1354 30.5406 18.5528V18.5532C30.5704 18.9778 30.5854 19.4217 30.5856 19.8727C30.5854 20.7375 30.3412 21.3904 29.8386 21.8687V21.8687Z" fill="#0F2438"/>
</g>
<path d="M6.40723 39H5.46484V32.6621H1.95898V39H1.02148V31.8906H6.40723V39ZM12.4375 36.417C12.4375 37.221 12.2536 37.8688 11.8857 38.3604C11.5179 38.8519 11.0199 39.0977 10.3916 39.0977C9.75033 39.0977 9.24577 38.8942 8.87793 38.4873V41.0312H7.97461V33.7168H8.7998L8.84375 34.3027C9.21159 33.847 9.72266 33.6191 10.377 33.6191C11.0117 33.6191 11.513 33.8584 11.8809 34.3369C12.252 34.8154 12.4375 35.4811 12.4375 36.334V36.417ZM11.5342 36.3145C11.5342 35.7188 11.4072 35.2484 11.1533 34.9033C10.8994 34.5583 10.5511 34.3857 10.1084 34.3857C9.56152 34.3857 9.15137 34.6283 8.87793 35.1133V37.6377C9.14811 38.1195 9.56152 38.3604 10.1182 38.3604C10.5511 38.3604 10.8945 38.1895 11.1484 37.8477C11.4056 37.5026 11.5342 36.9915 11.5342 36.3145ZM13.3506 36.3096C13.3506 35.792 13.4515 35.3265 13.6533 34.9131C13.8584 34.4997 14.1416 34.1807 14.5029 33.9561C14.8675 33.7314 15.2826 33.6191 15.748 33.6191C16.4674 33.6191 17.0485 33.8682 17.4912 34.3662C17.9372 34.8643 18.1602 35.5267 18.1602 36.3535V36.417C18.1602 36.9313 18.0609 37.3936 17.8623 37.8037C17.667 38.2106 17.3854 38.528 17.0176 38.7559C16.653 38.9837 16.2331 39.0977 15.7578 39.0977C15.0417 39.0977 14.4606 38.8486 14.0146 38.3506C13.5719 37.8525 13.3506 37.1934 13.3506 36.373V36.3096ZM14.2588 36.417C14.2588 37.0029 14.3939 37.4733 14.6641 37.8281C14.9375 38.1829 15.3021 38.3604 15.7578 38.3604C16.2168 38.3604 16.5814 38.1813 16.8516 37.8232C17.1217 37.4619 17.2568 36.9574 17.2568 36.3096C17.2568 35.7301 17.1185 35.2614 16.8418 34.9033C16.5684 34.542 16.2038 34.3613 15.748 34.3613C15.3021 34.3613 14.9424 34.5387 14.6689 34.8936C14.3955 35.2484 14.2588 35.7562 14.2588 36.417ZM19.0977 36.4561C19.0977 35.5739 19.2686 34.8805 19.6104 34.376C19.9521 33.8714 20.4209 33.6191 21.0166 33.6191C21.2933 33.6191 21.5358 33.6663 21.7441 33.7607V31.5H22.6475V33.79C22.8753 33.6761 23.1423 33.6191 23.4482 33.6191C24.0472 33.6191 24.5176 33.8714 24.8594 34.376C25.2012 34.8805 25.3721 35.6081 25.3721 36.5586C25.3721 37.3366 25.2012 37.9551 24.8594 38.4141C24.5208 38.873 24.0537 39.1025 23.458 39.1025C23.1423 39.1025 22.8721 39.0505 22.6475 38.9463V41.0312H21.7441V38.9609C21.5293 39.0553 21.2835 39.1025 21.0068 39.1025C20.4144 39.1025 19.9473 38.873 19.6055 38.4141C19.2669 37.9551 19.0977 37.3268 19.0977 36.5293V36.4561ZM24.4688 36.4561C24.4688 35.792 24.3548 35.2777 24.127 34.9131C23.8991 34.5452 23.585 34.3613 23.1846 34.3613C22.9795 34.3613 22.8005 34.3939 22.6475 34.459V38.2822C22.7939 38.3376 22.9762 38.3652 23.1943 38.3652C23.598 38.3652 23.9105 38.209 24.1318 37.8965C24.3564 37.584 24.4688 37.1038 24.4688 36.4561ZM20.001 36.5586C20.001 37.151 20.1068 37.6003 20.3184 37.9062C20.5299 38.2122 20.8343 38.3652 21.2314 38.3652C21.4202 38.3652 21.5911 38.3359 21.7441 38.2773V34.4443C21.6074 34.389 21.4398 34.3613 21.2412 34.3613C20.8441 34.3613 20.5381 34.5387 20.3232 34.8936C20.1084 35.2484 20.001 35.8034 20.001 36.5586ZM29.9668 33.7168H30.8701V39H29.9668V35.1475L27.5303 39H26.627V33.7168H27.5303V37.5742L29.9668 33.7168ZM36.6514 33.7168V39H35.7432V34.4639H33.9463L33.8389 36.4414C33.7803 37.3496 33.6273 37.999 33.3799 38.3896C33.1357 38.7803 32.7467 38.9837 32.2129 39H31.8516V38.2041L32.1104 38.1846C32.4033 38.152 32.6133 37.9827 32.7402 37.6768C32.8672 37.3708 32.9486 36.8044 32.9844 35.9775L33.082 33.7168H36.6514ZM39.0879 35.5381H40.46C41.0589 35.5446 41.5326 35.7008 41.8809 36.0068C42.2292 36.3128 42.4033 36.7279 42.4033 37.252C42.4033 37.7793 42.2243 38.2025 41.8662 38.5215C41.5081 38.8405 41.0264 39 40.4209 39H38.1846V33.7168H39.0879V35.5381ZM39.0879 36.2754V38.2627H40.4307C40.7692 38.2627 41.0312 38.1764 41.2168 38.0039C41.4023 37.8281 41.4951 37.5889 41.4951 37.2861C41.4951 36.9932 41.404 36.7539 41.2217 36.5684C41.0426 36.3796 40.7904 36.2819 40.4648 36.2754H39.0879Z" fill="#0F2438"/>
<defs>
<clipPath id="clip0_0:1064">
<rect width="24" height="24" fill="white" transform="translate(10)"/>
</clipPath>
</defs>
</svg>
