<svg width="40" height="46" viewBox="0 0 40 46" fill="none" xmlns="http://www.w3.org/2000/svg">
<g clip-path="url(#clip0_0:1069)">
<path d="M17.1212 21.9396C15.4503 21.9396 14.0909 23.2989 14.0909 24.9698C14.0909 26.6407 15.4503 28.0001 17.1212 28.0001C18.7921 28.0001 20.1515 26.6407 20.1515 24.9698C20.1515 23.2989 18.7921 21.9396 17.1212 21.9396ZM17.1212 26.1819C16.4527 26.1819 15.9091 25.6383 15.9091 24.9698C15.9091 24.3014 16.4527 23.7578 17.1212 23.7578C17.7894 23.7578 18.3333 24.3014 18.3333 24.9698C18.3333 25.6383 17.7897 26.1819 17.1212 26.1819Z" fill="#0F2438" stroke="white" stroke-width="0.3"/>
<path d="M26.0909 21.9396C24.42 21.9396 23.0607 23.2989 23.0607 24.9698C23.0607 26.6407 24.42 28.0001 26.0909 28.0001C27.7618 28.0001 29.1212 26.6407 29.1212 24.9698C29.1212 23.2989 27.7618 21.9396 26.0909 21.9396ZM26.0909 26.1819C25.4225 26.1819 24.8788 25.6383 24.8788 24.9698C24.8788 24.3014 25.4225 23.7578 26.0909 23.7578C26.7594 23.7578 27.303 24.3014 27.303 24.9698C27.303 25.6383 26.7594 26.1819 26.0909 26.1819Z" fill="#0F2438" stroke="white" stroke-width="0.3"/>
<path d="M31.3478 9.91914C31.175 9.70216 30.9132 9.57583 30.6363 9.57583H14.7184L13.892 5.39952C13.8196 5.03375 13.5311 4.74922 13.1641 4.68196L9.52783 4.0153C9.03301 3.92409 8.56028 4.25169 8.46967 4.74561C8.37906 5.23953 8.70602 5.71316 9.19998 5.80377L12.2284 6.3589L14.8963 19.8432C14.9805 20.269 15.3541 20.5759 15.7881 20.5759H28.5151C28.9385 20.5759 29.3054 20.2841 29.4009 19.8711L31.5221 10.6894C31.5844 10.4194 31.5202 10.1358 31.3478 9.91914ZM27.7921 18.7578H16.5347L15.078 11.3943H29.4929L27.7921 18.7578Z" fill="#0F2438" stroke="white" stroke-width="0.3"/>
</g>
<path d="M2.83691 39.8066H1.97266V43H1.03516V35.8906H1.97266V39.0254H2.70508L5.19043 35.8906H6.35742L3.64258 39.3379L6.55762 43H5.41016L2.83691 39.8066ZM6.89941 40.3096C6.89941 39.792 7.00033 39.3265 7.20215 38.9131C7.40723 38.4997 7.69043 38.1807 8.05176 37.9561C8.41634 37.7314 8.83138 37.6191 9.29688 37.6191C10.0163 37.6191 10.5973 37.8682 11.04 38.3662C11.486 38.8643 11.709 39.5267 11.709 40.3535V40.417C11.709 40.9313 11.6097 41.3936 11.4111 41.8037C11.2158 42.2106 10.9342 42.528 10.5664 42.7559C10.2018 42.9837 9.7819 43.0977 9.30664 43.0977C8.59049 43.0977 8.00944 42.8486 7.56348 42.3506C7.12077 41.8525 6.89941 41.1934 6.89941 40.373V40.3096ZM7.80762 40.417C7.80762 41.0029 7.94271 41.4733 8.21289 41.8281C8.48633 42.1829 8.85091 42.3604 9.30664 42.3604C9.76562 42.3604 10.1302 42.1813 10.4004 41.8232C10.6706 41.4619 10.8057 40.9574 10.8057 40.3096C10.8057 39.7301 10.6673 39.2614 10.3906 38.9033C10.1172 38.542 9.7526 38.3613 9.29688 38.3613C8.85091 38.3613 8.49121 38.5387 8.21777 38.8936C7.94434 39.2484 7.80762 39.7562 7.80762 40.417ZM17.3047 40.417C17.3047 41.221 17.1208 41.8688 16.7529 42.3604C16.3851 42.8519 15.887 43.0977 15.2588 43.0977C14.6175 43.0977 14.113 42.8942 13.7451 42.4873V45.0312H12.8418V37.7168H13.667L13.7109 38.3027C14.0788 37.847 14.5898 37.6191 15.2441 37.6191C15.8789 37.6191 16.3802 37.8584 16.748 38.3369C17.1191 38.8154 17.3047 39.4811 17.3047 40.334V40.417ZM16.4014 40.3145C16.4014 39.7188 16.2744 39.2484 16.0205 38.9033C15.7666 38.5583 15.4183 38.3857 14.9756 38.3857C14.4287 38.3857 14.0186 38.6283 13.7451 39.1133V41.6377C14.0153 42.1195 14.4287 42.3604 14.9854 42.3604C15.4183 42.3604 15.7617 42.1895 16.0156 41.8477C16.2728 41.5026 16.4014 40.9915 16.4014 40.3145ZM21.3623 39.1621C21.3623 38.9147 21.2679 38.7194 21.0791 38.5762C20.8903 38.4297 20.6315 38.3564 20.3027 38.3564C19.9837 38.3564 19.7168 38.4395 19.502 38.6055C19.2904 38.7715 19.1846 38.9668 19.1846 39.1914H18.2861C18.2861 38.7324 18.4782 38.3564 18.8623 38.0635C19.2464 37.7705 19.7266 37.624 20.3027 37.624C20.9212 37.624 21.403 37.7575 21.748 38.0244C22.0931 38.2881 22.2656 38.6657 22.2656 39.1572C22.2656 39.3949 22.194 39.613 22.0508 39.8115C21.9076 40.0101 21.7041 40.168 21.4404 40.2852C22.0557 40.4935 22.3633 40.9036 22.3633 41.5156C22.3633 42.0007 22.1761 42.3848 21.8018 42.668C21.4274 42.9512 20.9277 43.0928 20.3027 43.0928C19.694 43.0928 19.1911 42.9447 18.7939 42.6484C18.4001 42.349 18.2031 41.9453 18.2031 41.4375H19.1016C19.1016 41.6947 19.2155 41.916 19.4434 42.1016C19.6745 42.2839 19.9609 42.375 20.3027 42.375C20.6478 42.375 20.9261 42.2952 21.1377 42.1357C21.3493 41.9762 21.4551 41.7695 21.4551 41.5156C21.4551 41.2194 21.3656 41.0078 21.1865 40.8809C21.0107 40.7507 20.7357 40.6855 20.3613 40.6855H19.458V39.9238H20.4395C21.0547 39.9076 21.3623 39.6536 21.3623 39.1621ZM26.9531 37.7168H27.8564V43H26.9531V39.1475L24.5166 43H23.6133V37.7168H24.5166V41.5742L26.9531 37.7168ZM33.623 43H32.7197V40.7441H30.293V43H29.3848V37.7168H30.293V40.0068H32.7197V37.7168H33.623V43ZM38.3398 43C38.2878 42.8958 38.2454 42.7103 38.2129 42.4434C37.793 42.8796 37.2917 43.0977 36.709 43.0977C36.1882 43.0977 35.7601 42.9512 35.4248 42.6582C35.0928 42.362 34.9268 41.9876 34.9268 41.5352C34.9268 40.985 35.1351 40.5586 35.5518 40.2559C35.9717 39.9499 36.5609 39.7969 37.3193 39.7969H38.1982V39.3818C38.1982 39.0661 38.1038 38.8154 37.915 38.6299C37.7262 38.4411 37.4479 38.3467 37.0801 38.3467C36.7578 38.3467 36.4876 38.4281 36.2695 38.5908C36.0514 38.7536 35.9424 38.9505 35.9424 39.1816H35.0342C35.0342 38.918 35.127 38.6641 35.3125 38.4199C35.5013 38.1725 35.7552 37.9772 36.0742 37.834C36.3965 37.6908 36.7497 37.6191 37.1338 37.6191C37.7425 37.6191 38.2194 37.7721 38.5645 38.0781C38.9095 38.3809 39.0885 38.7992 39.1016 39.333V41.7646C39.1016 42.2497 39.1634 42.6354 39.2871 42.9219V43H38.3398ZM36.8408 42.3115C37.124 42.3115 37.3926 42.2383 37.6465 42.0918C37.9004 41.9453 38.0843 41.7549 38.1982 41.5205V40.4365H37.4902C36.3835 40.4365 35.8301 40.7604 35.8301 41.4082C35.8301 41.6914 35.9245 41.9128 36.1133 42.0723C36.3021 42.2318 36.5446 42.3115 36.8408 42.3115Z" fill="#0F2438"/>
<circle cx="34" cy="6" r="6" fill="#005BB9"/>
<path d="M35.9766 9H32.1523V8.34766L34.0469 6.28125C34.3203 5.97656 34.5143 5.72266 34.6289 5.51953C34.7461 5.3138 34.8047 5.10807 34.8047 4.90234C34.8047 4.63151 34.7279 4.41276 34.5742 4.24609C34.4232 4.07943 34.2188 3.99609 33.9609 3.99609C33.6536 3.99609 33.4154 4.08984 33.2461 4.27734C33.0768 4.46484 32.9922 4.72135 32.9922 5.04688H32.043C32.043 4.70052 32.1211 4.38932 32.2773 4.11328C32.4362 3.83464 32.6615 3.61849 32.9531 3.46484C33.2474 3.3112 33.5859 3.23438 33.9688 3.23438C34.5208 3.23438 34.9557 3.3737 35.2734 3.65234C35.5938 3.92839 35.7539 4.3112 35.7539 4.80078C35.7539 5.08464 35.6732 5.38281 35.5117 5.69531C35.3529 6.00521 35.0911 6.35807 34.7266 6.75391L33.3359 8.24219H35.9766V9Z" fill="white"/>
<defs>
<clipPath id="clip0_0:1069">
<rect width="24" height="24" fill="white" transform="translate(8 4)"/>
</clipPath>
</defs>
</svg>
