<svg width="52" height="46" viewBox="0 0 52 46" fill="none" xmlns="http://www.w3.org/2000/svg">
<path d="M26 26.6648C25.6583 26.6648 25.3289 26.541 25.0722 26.3161C24.1026 25.4683 23.1679 24.6717 22.3432 23.9689L22.339 23.9652C19.9211 21.9048 17.8331 20.1253 16.3804 18.3725C14.7564 16.4129 14 14.5549 14 12.5252C14 10.5532 14.6762 8.73382 15.9039 7.4021C17.1463 6.05462 18.851 5.3125 20.7046 5.3125C22.09 5.3125 23.3587 5.75049 24.4754 6.61419C25.039 7.05017 25.5499 7.58374 26 8.20611C26.4502 7.58374 26.9609 7.05017 27.5247 6.61419C28.6415 5.75049 29.9102 5.3125 31.2956 5.3125C33.149 5.3125 34.8538 6.05462 36.0962 7.4021C37.3239 8.73382 38 10.5532 38 12.5252C38 14.5549 37.2437 16.4129 35.6198 18.3723C34.167 20.1253 32.0793 21.9046 29.6617 23.9649C28.8355 24.6687 27.8993 25.4667 26.9276 26.3165C26.6711 26.541 26.3415 26.6648 26 26.6648V26.6648ZM20.7046 6.71838C19.2483 6.71838 17.9106 7.29956 16.9374 8.35497C15.9497 9.42632 15.4057 10.9073 15.4057 12.5252C15.4057 14.2323 16.0402 15.759 17.4627 17.4754C18.8376 19.1346 20.8827 20.8773 23.2507 22.8954L23.255 22.899C24.0829 23.6045 25.0213 24.4043 25.998 25.2583C26.9805 24.4027 27.9204 23.6016 28.7498 22.895C31.1176 20.877 33.1625 19.1346 34.5374 17.4754C35.9598 15.759 36.5943 14.2323 36.5943 12.5252C36.5943 10.9073 36.0503 9.42632 35.0626 8.35497C34.0896 7.29956 32.7516 6.71838 31.2956 6.71838C30.2288 6.71838 29.2494 7.05749 28.3846 7.72619C27.6139 8.32238 27.077 9.07604 26.7622 9.60339C26.6004 9.87456 26.3155 10.0364 26 10.0364C25.6845 10.0364 25.3996 9.87456 25.2377 9.60339C24.9231 9.07604 24.3863 8.32238 23.6154 7.72619C22.7506 7.05749 21.7712 6.71838 20.7046 6.71838V6.71838Z" fill="#0F2438"/>
<path d="M5.68262 35.8906H6.62012V43H5.68262V37.5215L2.18164 43H1.23926V35.8906H2.18164V41.3691L5.68262 35.8906ZM11.0928 39.1621C11.0928 38.9147 10.9984 38.7194 10.8096 38.5762C10.6208 38.4297 10.362 38.3564 10.0332 38.3564C9.71419 38.3564 9.44727 38.4395 9.23242 38.6055C9.02083 38.7715 8.91504 38.9668 8.91504 39.1914H8.0166C8.0166 38.7324 8.20866 38.3564 8.59277 38.0635C8.97689 37.7705 9.45703 37.624 10.0332 37.624C10.6517 37.624 11.1335 37.7575 11.4785 38.0244C11.8236 38.2881 11.9961 38.6657 11.9961 39.1572C11.9961 39.3949 11.9245 39.613 11.7812 39.8115C11.638 40.0101 11.4346 40.168 11.1709 40.2852C11.7861 40.4935 12.0938 40.9036 12.0938 41.5156C12.0938 42.0007 11.9066 42.3848 11.5322 42.668C11.1579 42.9512 10.6582 43.0928 10.0332 43.0928C9.42448 43.0928 8.92155 42.9447 8.52441 42.6484C8.13053 42.349 7.93359 41.9453 7.93359 41.4375H8.83203C8.83203 41.6947 8.94596 41.916 9.17383 42.1016C9.40495 42.2839 9.69141 42.375 10.0332 42.375C10.3783 42.375 10.6566 42.2952 10.8682 42.1357C11.0798 41.9762 11.1855 41.7695 11.1855 41.5156C11.1855 41.2194 11.096 41.0078 10.917 40.8809C10.7412 40.7507 10.4661 40.6855 10.0918 40.6855H9.18848V39.9238H10.1699C10.7852 39.9076 11.0928 39.6536 11.0928 39.1621ZM15.585 38.0195C16.249 38.0195 16.7796 38.2425 17.1768 38.6885C17.5771 39.1312 17.7773 39.7155 17.7773 40.4414V40.5244C17.7773 41.0225 17.6813 41.4684 17.4893 41.8623C17.2972 42.2529 17.0205 42.5573 16.6592 42.7754C16.3011 42.9902 15.8877 43.0977 15.4189 43.0977C14.7093 43.0977 14.138 42.8617 13.7051 42.3896C13.2721 41.9144 13.0557 41.278 13.0557 40.4805V40.041C13.0557 38.931 13.2607 38.0488 13.6709 37.3945C14.0843 36.7402 14.693 36.3415 15.4971 36.1982C15.9528 36.1169 16.2604 36.0176 16.4199 35.9004C16.5794 35.7832 16.6592 35.6221 16.6592 35.417H17.4014C17.4014 35.8239 17.3086 36.1413 17.123 36.3691C16.9408 36.597 16.6478 36.7581 16.2441 36.8525L15.5703 37.0039C15.0332 37.1309 14.6296 37.3457 14.3594 37.6484C14.0924 37.9479 13.9183 38.3483 13.8369 38.8496C14.3154 38.2962 14.8981 38.0195 15.585 38.0195ZM15.4092 38.7617C14.9665 38.7617 14.6149 38.9115 14.3545 39.2109C14.0941 39.5072 13.9639 39.9189 13.9639 40.4463V40.5244C13.9639 41.0908 14.0941 41.54 14.3545 41.8721C14.6182 42.2008 14.973 42.3652 15.4189 42.3652C15.8682 42.3652 16.223 42.1992 16.4834 41.8672C16.7438 41.5352 16.874 41.0501 16.874 40.4121C16.874 39.9141 16.7422 39.5153 16.4785 39.2158C16.2181 38.9131 15.8617 38.7617 15.4092 38.7617ZM23.168 40.417C23.168 41.221 22.984 41.8688 22.6162 42.3604C22.2484 42.8519 21.7503 43.0977 21.1221 43.0977C20.4808 43.0977 19.9762 42.8942 19.6084 42.4873V45.0312H18.7051V37.7168H19.5303L19.5742 38.3027C19.9421 37.847 20.4531 37.6191 21.1074 37.6191C21.7422 37.6191 22.2435 37.8584 22.6113 38.3369C22.9824 38.8154 23.168 39.4811 23.168 40.334V40.417ZM22.2646 40.3145C22.2646 39.7188 22.1377 39.2484 21.8838 38.9033C21.6299 38.5583 21.2816 38.3857 20.8389 38.3857C20.292 38.3857 19.8818 38.6283 19.6084 39.1133V41.6377C19.8786 42.1195 20.292 42.3604 20.8486 42.3604C21.2816 42.3604 21.625 42.1895 21.8789 41.8477C22.1361 41.5026 22.2646 40.9915 22.2646 40.3145ZM27.582 43C27.5299 42.8958 27.4876 42.7103 27.4551 42.4434C27.0352 42.8796 26.5339 43.0977 25.9512 43.0977C25.4303 43.0977 25.0023 42.9512 24.667 42.6582C24.335 42.362 24.1689 41.9876 24.1689 41.5352C24.1689 40.985 24.3773 40.5586 24.7939 40.2559C25.2139 39.9499 25.8031 39.7969 26.5615 39.7969H27.4404V39.3818C27.4404 39.0661 27.346 38.8154 27.1572 38.6299C26.9684 38.4411 26.6901 38.3467 26.3223 38.3467C26 38.3467 25.7298 38.4281 25.5117 38.5908C25.2936 38.7536 25.1846 38.9505 25.1846 39.1816H24.2764C24.2764 38.918 24.3691 38.6641 24.5547 38.4199C24.7435 38.1725 24.9974 37.9772 25.3164 37.834C25.6387 37.6908 25.9919 37.6191 26.376 37.6191C26.9847 37.6191 27.4616 37.7721 27.8066 38.0781C28.1517 38.3809 28.3307 38.7992 28.3438 39.333V41.7646C28.3438 42.2497 28.4056 42.6354 28.5293 42.9219V43H27.582ZM26.083 42.3115C26.3662 42.3115 26.6348 42.2383 26.8887 42.0918C27.1426 41.9453 27.3265 41.7549 27.4404 41.5205V40.4365H26.7324C25.6257 40.4365 25.0723 40.7604 25.0723 41.4082C25.0723 41.6914 25.1667 41.9128 25.3555 42.0723C25.5443 42.2318 25.7868 42.3115 26.083 42.3115ZM34.0762 43H33.1729V40.7441H30.7461V43H29.8379V37.7168H30.7461V40.0068H33.1729V37.7168H34.0762V43ZM39.8477 43H38.9443V40.7441H36.5176V43H35.6094V37.7168H36.5176V40.0068H38.9443V37.7168H39.8477V43ZM41.0635 40.3096C41.0635 39.792 41.1644 39.3265 41.3662 38.9131C41.5713 38.4997 41.8545 38.1807 42.2158 37.9561C42.5804 37.7314 42.9954 37.6191 43.4609 37.6191C44.1803 37.6191 44.7614 37.8682 45.2041 38.3662C45.6501 38.8643 45.873 39.5267 45.873 40.3535V40.417C45.873 40.9313 45.7738 41.3936 45.5752 41.8037C45.3799 42.2106 45.0983 42.528 44.7305 42.7559C44.3659 42.9837 43.946 43.0977 43.4707 43.0977C42.7546 43.0977 42.1735 42.8486 41.7275 42.3506C41.2848 41.8525 41.0635 41.1934 41.0635 40.373V40.3096ZM41.9717 40.417C41.9717 41.0029 42.1068 41.4733 42.377 41.8281C42.6504 42.1829 43.015 42.3604 43.4707 42.3604C43.9297 42.3604 44.2943 42.1813 44.5645 41.8232C44.8346 41.4619 44.9697 40.9574 44.9697 40.3096C44.9697 39.7301 44.8314 39.2614 44.5547 38.9033C44.2812 38.542 43.9167 38.3613 43.4609 38.3613C43.015 38.3613 42.6553 38.5387 42.3818 38.8936C42.1084 39.2484 41.9717 39.7562 41.9717 40.417ZM49.1982 43.0977C48.4821 43.0977 47.8994 42.8633 47.4502 42.3945C47.001 41.9225 46.7764 41.2926 46.7764 40.5049V40.3389C46.7764 39.8148 46.8757 39.3477 47.0742 38.9375C47.276 38.5241 47.556 38.2018 47.9141 37.9707C48.2754 37.7363 48.666 37.6191 49.0859 37.6191C49.7728 37.6191 50.3066 37.8454 50.6875 38.2979C51.0684 38.7503 51.2588 39.3981 51.2588 40.2412V40.6172H47.6797C47.6927 41.138 47.8441 41.5596 48.1338 41.8818C48.4268 42.2008 48.7979 42.3604 49.2471 42.3604C49.5661 42.3604 49.8363 42.2952 50.0576 42.165C50.279 42.0348 50.4727 41.8623 50.6387 41.6475L51.1904 42.0771C50.7477 42.7575 50.0837 43.0977 49.1982 43.0977ZM49.0859 38.3613C48.7214 38.3613 48.4154 38.4948 48.168 38.7617C47.9206 39.0254 47.7676 39.3965 47.709 39.875H50.3555V39.8066C50.3294 39.3477 50.2057 38.9928 49.9844 38.7422C49.763 38.4883 49.4635 38.3613 49.0859 38.3613Z" fill="#0F2438"/>
<circle cx="38" cy="6" r="6" fill="#005BB9"/>
<path d="M37.25 5.72266H37.8281C38.1198 5.72005 38.3503 5.64453 38.5195 5.49609C38.6914 5.34766 38.7773 5.13281 38.7773 4.85156C38.7773 4.58073 38.7057 4.37109 38.5625 4.22266C38.4219 4.07161 38.2057 3.99609 37.9141 3.99609C37.6589 3.99609 37.4492 4.07031 37.2852 4.21875C37.1211 4.36458 37.0391 4.55599 37.0391 4.79297H36.0898C36.0898 4.5013 36.1667 4.23568 36.3203 3.99609C36.4766 3.75651 36.6927 3.57031 36.9688 3.4375C37.2474 3.30208 37.5586 3.23438 37.9023 3.23438C38.4701 3.23438 38.9154 3.3776 39.2383 3.66406C39.5638 3.94792 39.7266 4.34375 39.7266 4.85156C39.7266 5.10677 39.6445 5.34766 39.4805 5.57422C39.319 5.79818 39.1094 5.96745 38.8516 6.08203C39.1641 6.1888 39.401 6.35677 39.5625 6.58594C39.7266 6.8151 39.8086 7.08854 39.8086 7.40625C39.8086 7.91667 39.6328 8.32292 39.2812 8.625C38.9323 8.92708 38.4727 9.07812 37.9023 9.07812C37.3555 9.07812 36.9076 8.93229 36.5586 8.64062C36.2096 8.34896 36.0352 7.96094 36.0352 7.47656H36.9844C36.9844 7.72656 37.0677 7.92969 37.2344 8.08594C37.4036 8.24219 37.6302 8.32031 37.9141 8.32031C38.2083 8.32031 38.4401 8.24219 38.6094 8.08594C38.7786 7.92969 38.8633 7.70312 38.8633 7.40625C38.8633 7.10677 38.7747 6.8763 38.5977 6.71484C38.4206 6.55339 38.1576 6.47266 37.8086 6.47266H37.25V5.72266Z" fill="white"/>
</svg>
