<svg width="39" height="42" viewBox="0 0 39 42" fill="none" xmlns="http://www.w3.org/2000/svg">
<g clip-path="url(#clip0_0:1053)">
<path d="M31.3999 10.392C31.3992 10.3914 31.3986 10.3907 31.3981 10.3902L21.608 0.600404C21.1907 0.182923 20.6359 -0.046875 20.0457 -0.046875C19.4556 -0.046875 18.9007 0.182923 18.4833 0.600404L8.69827 10.3852C8.69497 10.3885 8.69149 10.392 8.68838 10.3953C7.83145 11.2572 7.83291 12.6555 8.69259 13.5152C9.08535 13.9082 9.60391 14.1356 10.1585 14.1596C10.1812 14.1618 10.2039 14.1629 10.2268 14.1629H10.6169V21.3674C10.6169 22.7932 11.777 23.9532 13.2029 23.9532H17.0331C17.4214 23.9532 17.7362 23.6382 17.7362 23.25V17.6016C17.7362 16.951 18.2655 16.4218 18.9161 16.4218H21.1753C21.8259 16.4218 22.355 16.951 22.355 17.6016V23.25C22.355 23.6382 22.6698 23.9532 23.0582 23.9532H26.8884C28.3144 23.9532 29.4744 22.7932 29.4744 21.3674V14.1629H29.8362C30.4262 14.1629 30.981 13.9331 31.3986 13.5154C32.2592 12.6544 32.2596 11.2535 31.3999 10.392V10.392ZM30.4042 12.5211C30.2524 12.6729 30.0506 12.7566 29.8362 12.7566H28.7712C28.3829 12.7566 28.0681 13.0714 28.0681 13.4597V21.3674C28.0681 22.0177 27.5389 22.5469 26.8884 22.5469H23.7613V17.6016C23.7613 16.1758 22.6013 15.0156 21.1753 15.0156H18.9161C17.4901 15.0156 16.3299 16.1758 16.3299 17.6016V22.5469H13.2029C12.5525 22.5469 12.0231 22.0177 12.0231 21.3674V13.4597C12.0231 13.0714 11.7083 12.7566 11.32 12.7566H10.2733C10.2624 12.7559 10.2516 12.7553 10.2404 12.7552C10.0309 12.7515 9.83444 12.6684 9.68722 12.521C9.37411 12.2078 9.37411 11.6983 9.68722 11.385C9.68741 11.385 9.68741 11.3848 9.68759 11.3846L9.68814 11.3841L19.4779 1.59467C19.6295 1.44287 19.8311 1.35938 20.0457 1.35938C20.2601 1.35938 20.4617 1.44287 20.6135 1.59467L30.4011 11.382C30.4025 11.3835 30.4042 11.385 30.4056 11.3864C30.7171 11.7001 30.7166 12.2086 30.4042 12.5211V12.5211Z" fill="#0F2438"/>
</g>
<path d="M5.72559 32.6621H2.29785V39H1.35547V31.8906H5.72559V32.6621ZM9.89062 33.7168V39H8.98242V34.4639H7.18555L7.07812 36.4414C7.01953 37.3496 6.86654 37.999 6.61914 38.3896C6.375 38.7803 5.986 38.9837 5.45215 39H5.09082V38.2041L5.34961 38.1846C5.64258 38.152 5.85254 37.9827 5.97949 37.6768C6.10645 37.3708 6.18783 36.8044 6.22363 35.9775L6.32129 33.7168H9.89062ZM14.6025 39C14.5505 38.8958 14.5081 38.7103 14.4756 38.4434C14.0557 38.8796 13.5544 39.0977 12.9717 39.0977C12.4508 39.0977 12.0228 38.9512 11.6875 38.6582C11.3555 38.362 11.1895 37.9876 11.1895 37.5352C11.1895 36.985 11.3978 36.5586 11.8145 36.2559C12.2344 35.9499 12.8236 35.7969 13.582 35.7969H14.4609V35.3818C14.4609 35.0661 14.3665 34.8154 14.1777 34.6299C13.9889 34.4411 13.7106 34.3467 13.3428 34.3467C13.0205 34.3467 12.7503 34.4281 12.5322 34.5908C12.3141 34.7536 12.2051 34.9505 12.2051 35.1816H11.2969C11.2969 34.918 11.3896 34.6641 11.5752 34.4199C11.764 34.1725 12.0179 33.9772 12.3369 33.834C12.6592 33.6908 13.0124 33.6191 13.3965 33.6191C14.0052 33.6191 14.4821 33.7721 14.8271 34.0781C15.1722 34.3809 15.3512 34.7992 15.3643 35.333V37.7646C15.3643 38.2497 15.4261 38.6354 15.5498 38.9219V39H14.6025ZM13.1035 38.3115C13.3867 38.3115 13.6553 38.2383 13.9092 38.0918C14.1631 37.9453 14.347 37.7549 14.4609 37.5205V36.4365H13.7529C12.6462 36.4365 12.0928 36.7604 12.0928 37.4082C12.0928 37.6914 12.1872 37.9128 12.376 38.0723C12.5648 38.2318 12.8073 38.3115 13.1035 38.3115ZM16.8633 39V33.7168H18.9238C19.627 33.7168 20.1657 33.8405 20.54 34.0879C20.9176 34.332 21.1064 34.6917 21.1064 35.167C21.1064 35.4111 21.0332 35.6325 20.8867 35.8311C20.7402 36.0264 20.5238 36.1761 20.2373 36.2803C20.5563 36.3551 20.8118 36.5016 21.0039 36.7197C21.1992 36.9378 21.2969 37.1982 21.2969 37.501C21.2969 37.986 21.1178 38.3571 20.7598 38.6143C20.4049 38.8714 19.902 39 19.251 39H16.8633ZM17.7666 36.6807V38.2725H19.2607C19.6383 38.2725 19.9199 38.2025 20.1055 38.0625C20.2943 37.9225 20.3887 37.7256 20.3887 37.4717C20.3887 36.9443 20.0013 36.6807 19.2266 36.6807H17.7666ZM17.7666 35.958H18.9336C19.7799 35.958 20.2031 35.7106 20.2031 35.2158C20.2031 34.721 19.8027 34.4655 19.002 34.4492H17.7666V35.958ZM26.8096 39H25.9062V36.7441H23.4795V39H22.5713V33.7168H23.4795V36.0068H25.9062V33.7168H26.8096V39ZM31.5264 39C31.4743 38.8958 31.432 38.7103 31.3994 38.4434C30.9795 38.8796 30.4782 39.0977 29.8955 39.0977C29.3747 39.0977 28.9466 38.9512 28.6113 38.6582C28.2793 38.362 28.1133 37.9876 28.1133 37.5352C28.1133 36.985 28.3216 36.5586 28.7383 36.2559C29.1582 35.9499 29.7474 35.7969 30.5059 35.7969H31.3848V35.3818C31.3848 35.0661 31.2904 34.8154 31.1016 34.6299C30.9128 34.4411 30.6344 34.3467 30.2666 34.3467C29.9443 34.3467 29.6742 34.4281 29.4561 34.5908C29.238 34.7536 29.1289 34.9505 29.1289 35.1816H28.2207C28.2207 34.918 28.3135 34.6641 28.499 34.4199C28.6878 34.1725 28.9417 33.9772 29.2607 33.834C29.583 33.6908 29.9362 33.6191 30.3203 33.6191C30.929 33.6191 31.4059 33.7721 31.751 34.0781C32.096 34.3809 32.2751 34.7992 32.2881 35.333V37.7646C32.2881 38.2497 32.3499 38.6354 32.4736 38.9219V39H31.5264ZM30.0273 38.3115C30.3105 38.3115 30.5791 38.2383 30.833 38.0918C31.0869 37.9453 31.2708 37.7549 31.3848 37.5205V36.4365H30.6768C29.57 36.4365 29.0166 36.7604 29.0166 37.4082C29.0166 37.6914 29.111 37.9128 29.2998 38.0723C29.4886 38.2318 29.7311 38.3115 30.0273 38.3115ZM37.7422 33.7168V39H36.834V36.9443H35.4717L34.2266 39H33.25L34.5781 36.8076C34.2396 36.6839 33.9792 36.4935 33.7969 36.2363C33.6178 35.9759 33.5283 35.6732 33.5283 35.3281C33.5283 34.8464 33.709 34.459 34.0703 34.166C34.4316 33.8698 34.915 33.7201 35.5205 33.7168H37.7422ZM34.4365 35.3379C34.4365 35.5951 34.5244 35.8034 34.7002 35.9629C34.876 36.1191 35.1087 36.1989 35.3984 36.2021H36.834V34.4492H35.5352C35.1999 34.4492 34.9329 34.5322 34.7344 34.6982C34.5358 34.861 34.4365 35.0742 34.4365 35.3379Z" fill="#0F2438"/>
<defs>
<clipPath id="clip0_0:1053">
<rect width="24" height="24" fill="white" transform="translate(8)"/>
</clipPath>
</defs>
</svg>
